<mxfile host="app.diagrams.net" agent="Mozilla/5.0 (Windows NT 10.0; Win64; x64) AppleWebKit/537.36 (KHTML, like Gecko) Chrome/131.0.0.0 Safari/537.36" version="25.0.3">
  <diagram name="Page-1" id="K93SIa7YDmsRFIXSMjSY">
    <mxGraphModel dx="2443" dy="829" grid="1" gridSize="10" guides="1" tooltips="1" connect="1" arrows="1" fold="1" page="1" pageScale="1" pageWidth="850" pageHeight="1100" math="0" shadow="0">
      <root>
        <mxCell id="0" />
        <mxCell id="1" parent="0" />
        <mxCell id="M3-TArd2jDY2wTzvRLE7-7" style="edgeStyle=orthogonalEdgeStyle;rounded=0;orthogonalLoop=1;jettySize=auto;html=1;entryX=0.5;entryY=0;entryDx=0;entryDy=0;" edge="1" parent="1" source="M3-TArd2jDY2wTzvRLE7-1" target="M3-TArd2jDY2wTzvRLE7-3">
          <mxGeometry relative="1" as="geometry" />
        </mxCell>
        <mxCell id="M3-TArd2jDY2wTzvRLE7-1" value="&lt;font style=&quot;font-size: 24px;&quot;&gt;start&lt;/font&gt;" style="strokeWidth=2;html=1;shape=mxgraph.flowchart.start_1;whiteSpace=wrap;" vertex="1" parent="1">
          <mxGeometry x="-782" y="40" width="100" height="60" as="geometry" />
        </mxCell>
        <mxCell id="M3-TArd2jDY2wTzvRLE7-2" value="&lt;font style=&quot;font-size: 24px;&quot;&gt;end&lt;/font&gt;" style="strokeWidth=2;html=1;shape=mxgraph.flowchart.start_1;whiteSpace=wrap;" vertex="1" parent="1">
          <mxGeometry x="-782" y="430" width="100" height="60" as="geometry" />
        </mxCell>
        <mxCell id="M3-TArd2jDY2wTzvRLE7-8" style="edgeStyle=orthogonalEdgeStyle;rounded=0;orthogonalLoop=1;jettySize=auto;html=1;entryX=0.5;entryY=0;entryDx=0;entryDy=0;" edge="1" parent="1" source="M3-TArd2jDY2wTzvRLE7-3" target="M3-TArd2jDY2wTzvRLE7-4">
          <mxGeometry relative="1" as="geometry" />
        </mxCell>
        <mxCell id="M3-TArd2jDY2wTzvRLE7-3" value="input n" style="shape=parallelogram;perimeter=parallelogramPerimeter;whiteSpace=wrap;html=1;fixedSize=1;" vertex="1" parent="1">
          <mxGeometry x="-808" y="150" width="152" height="30" as="geometry" />
        </mxCell>
        <mxCell id="M3-TArd2jDY2wTzvRLE7-9" style="edgeStyle=orthogonalEdgeStyle;rounded=0;orthogonalLoop=1;jettySize=auto;html=1;entryX=0.5;entryY=0;entryDx=0;entryDy=0;" edge="1" parent="1" source="M3-TArd2jDY2wTzvRLE7-4" target="M3-TArd2jDY2wTzvRLE7-6">
          <mxGeometry relative="1" as="geometry" />
        </mxCell>
        <mxCell id="M3-TArd2jDY2wTzvRLE7-4" value="result = calculateSereisSum(n)" style="rounded=1;whiteSpace=wrap;html=1;absoluteArcSize=1;arcSize=14;strokeWidth=2;" vertex="1" parent="1">
          <mxGeometry x="-822" y="230" width="180" height="40" as="geometry" />
        </mxCell>
        <mxCell id="M3-TArd2jDY2wTzvRLE7-5" value="if( n &amp;lt;= 1)" style="rhombus;whiteSpace=wrap;html=1;" vertex="1" parent="1">
          <mxGeometry x="-555" y="140" width="110" height="50" as="geometry" />
        </mxCell>
        <mxCell id="M3-TArd2jDY2wTzvRLE7-6" value="output&lt;div&gt;&quot;Sum = &quot;, result&lt;/div&gt;" style="shape=parallelogram;perimeter=parallelogramPerimeter;whiteSpace=wrap;html=1;fixedSize=1;" vertex="1" parent="1">
          <mxGeometry x="-808" y="330" width="152" height="30" as="geometry" />
        </mxCell>
        <mxCell id="M3-TArd2jDY2wTzvRLE7-10" style="edgeStyle=orthogonalEdgeStyle;rounded=0;orthogonalLoop=1;jettySize=auto;html=1;entryX=0.5;entryY=0;entryDx=0;entryDy=0;entryPerimeter=0;" edge="1" parent="1" source="M3-TArd2jDY2wTzvRLE7-6" target="M3-TArd2jDY2wTzvRLE7-2">
          <mxGeometry relative="1" as="geometry" />
        </mxCell>
        <mxCell id="M3-TArd2jDY2wTzvRLE7-12" style="edgeStyle=orthogonalEdgeStyle;rounded=0;orthogonalLoop=1;jettySize=auto;html=1;entryX=0.5;entryY=0;entryDx=0;entryDy=0;" edge="1" parent="1" source="M3-TArd2jDY2wTzvRLE7-11" target="M3-TArd2jDY2wTzvRLE7-5">
          <mxGeometry relative="1" as="geometry" />
        </mxCell>
        <mxCell id="M3-TArd2jDY2wTzvRLE7-11" value="factorial(n)" style="strokeWidth=2;html=1;shape=mxgraph.flowchart.start_1;whiteSpace=wrap;" vertex="1" parent="1">
          <mxGeometry x="-585" y="40" width="170" height="50" as="geometry" />
        </mxCell>
        <mxCell id="M3-TArd2jDY2wTzvRLE7-13" value="&lt;font style=&quot;font-size: 16px;&quot;&gt;return 1&lt;/font&gt;" style="strokeWidth=2;html=1;shape=mxgraph.flowchart.start_1;whiteSpace=wrap;" vertex="1" parent="1">
          <mxGeometry x="-435" y="210" width="70" height="30" as="geometry" />
        </mxCell>
        <mxCell id="M3-TArd2jDY2wTzvRLE7-14" style="edgeStyle=orthogonalEdgeStyle;rounded=0;orthogonalLoop=1;jettySize=auto;html=1;entryX=0.5;entryY=0;entryDx=0;entryDy=0;entryPerimeter=0;" edge="1" parent="1" source="M3-TArd2jDY2wTzvRLE7-5" target="M3-TArd2jDY2wTzvRLE7-13">
          <mxGeometry relative="1" as="geometry" />
        </mxCell>
        <mxCell id="M3-TArd2jDY2wTzvRLE7-15" value="&lt;font style=&quot;font-size: 16px;&quot;&gt;return n * factorial(n - 1)&lt;/font&gt;" style="strokeWidth=2;html=1;shape=mxgraph.flowchart.start_1;whiteSpace=wrap;" vertex="1" parent="1">
          <mxGeometry x="-600" y="270" width="200" height="50" as="geometry" />
        </mxCell>
        <mxCell id="M3-TArd2jDY2wTzvRLE7-16" style="edgeStyle=orthogonalEdgeStyle;rounded=0;orthogonalLoop=1;jettySize=auto;html=1;entryX=0.5;entryY=0;entryDx=0;entryDy=0;entryPerimeter=0;" edge="1" parent="1" source="M3-TArd2jDY2wTzvRLE7-5" target="M3-TArd2jDY2wTzvRLE7-15">
          <mxGeometry relative="1" as="geometry" />
        </mxCell>
        <mxCell id="M3-TArd2jDY2wTzvRLE7-21" style="edgeStyle=orthogonalEdgeStyle;rounded=0;orthogonalLoop=1;jettySize=auto;html=1;entryX=0.5;entryY=0;entryDx=0;entryDy=0;" edge="1" parent="1" source="M3-TArd2jDY2wTzvRLE7-17" target="M3-TArd2jDY2wTzvRLE7-18">
          <mxGeometry relative="1" as="geometry" />
        </mxCell>
        <mxCell id="M3-TArd2jDY2wTzvRLE7-17" value="calculateSeriessSum(terms)" style="strokeWidth=2;html=1;shape=mxgraph.flowchart.start_1;whiteSpace=wrap;" vertex="1" parent="1">
          <mxGeometry x="-287" y="40" width="170" height="50" as="geometry" />
        </mxCell>
        <mxCell id="M3-TArd2jDY2wTzvRLE7-22" style="edgeStyle=orthogonalEdgeStyle;rounded=0;orthogonalLoop=1;jettySize=auto;html=1;entryX=0.5;entryY=0;entryDx=0;entryDy=0;" edge="1" parent="1" source="M3-TArd2jDY2wTzvRLE7-18" target="M3-TArd2jDY2wTzvRLE7-19">
          <mxGeometry relative="1" as="geometry" />
        </mxCell>
        <mxCell id="M3-TArd2jDY2wTzvRLE7-18" value="for ( i &amp;lt; terms, i++)" style="rhombus;whiteSpace=wrap;html=1;" vertex="1" parent="1">
          <mxGeometry x="-267" y="130" width="130" height="70" as="geometry" />
        </mxCell>
        <mxCell id="M3-TArd2jDY2wTzvRLE7-23" style="edgeStyle=orthogonalEdgeStyle;rounded=0;orthogonalLoop=1;jettySize=auto;html=1;entryX=1;entryY=1;entryDx=0;entryDy=0;" edge="1" parent="1" source="M3-TArd2jDY2wTzvRLE7-19" target="M3-TArd2jDY2wTzvRLE7-18">
          <mxGeometry relative="1" as="geometry" />
        </mxCell>
        <mxCell id="M3-TArd2jDY2wTzvRLE7-19" value="sum += (i +factorial(i + 1))" style="rounded=1;whiteSpace=wrap;html=1;absoluteArcSize=1;arcSize=14;strokeWidth=2;" vertex="1" parent="1">
          <mxGeometry x="-127" y="230" width="180" height="40" as="geometry" />
        </mxCell>
        <mxCell id="M3-TArd2jDY2wTzvRLE7-24" value="&lt;font style=&quot;font-size: 16px;&quot;&gt;returm sum&lt;/font&gt;" style="strokeWidth=2;html=1;shape=mxgraph.flowchart.start_1;whiteSpace=wrap;" vertex="1" parent="1">
          <mxGeometry x="-259.5" y="300" width="115" height="30" as="geometry" />
        </mxCell>
        <mxCell id="M3-TArd2jDY2wTzvRLE7-25" style="edgeStyle=orthogonalEdgeStyle;rounded=0;orthogonalLoop=1;jettySize=auto;html=1;entryX=0.5;entryY=0;entryDx=0;entryDy=0;entryPerimeter=0;" edge="1" parent="1" source="M3-TArd2jDY2wTzvRLE7-18" target="M3-TArd2jDY2wTzvRLE7-24">
          <mxGeometry relative="1" as="geometry" />
        </mxCell>
      </root>
    </mxGraphModel>
  </diagram>
</mxfile>
